<mxfile host="65bd71144e" pages="2">
    <diagram id="1cCb_u2O2cXnM25xXA9q" name="Create domain project">
        <mxGraphModel dx="2233" dy="1477" grid="1" gridSize="10" guides="1" tooltips="1" connect="1" arrows="1" fold="1" page="1" pageScale="1" pageWidth="1169" pageHeight="827" math="0" shadow="0">
            <root>
                <mxCell id="0"/>
                <mxCell id="1" parent="0"/>
                <mxCell id="KD4jFZE-13GcvxPWc2QR-12" value="TemplateCopier.ConApp" style="swimlane;fontStyle=0;childLayout=stackLayout;horizontal=1;startSize=26;fillColor=#f5f5f5;horizontalStack=0;resizeParent=1;resizeParentMax=0;resizeLast=0;collapsible=1;marginBottom=0;swimlaneFillColor=#ffffff;align=center;fontSize=14;strokeColor=#666666;fontColor=#333333;" parent="1" vertex="1">
                    <mxGeometry x="360" y="40" width="240" height="160" as="geometry"/>
                </mxCell>
                <mxCell id="KD4jFZE-13GcvxPWc2QR-15" value="Erzeugt eine Kopie von &#10;'QuickTemplate' und passt die &#10;entsprechenden Namen an.&#10;Kopier-Prozess:&#10;Beim Kopieren werden die Dateien, welche mit &#10;dem Label 'BaseCode' gekennzeichnet sind &#10;mit dem Label 'CodeCopy' gekennzeichnet." style="text;strokeColor=none;fillColor=none;spacingLeft=4;spacingRight=4;overflow=hidden;rotatable=0;points=[[0,0.5],[1,0.5]];portConstraint=eastwest;fontSize=11;fontColor=#000000;" parent="KD4jFZE-13GcvxPWc2QR-12" vertex="1">
                    <mxGeometry y="26" width="240" height="134" as="geometry"/>
                </mxCell>
                <mxCell id="KD4jFZE-13GcvxPWc2QR-16" value="" style="endArrow=classic;html=1;fontSize=10;" parent="1" target="KD4jFZE-13GcvxPWc2QR-15" edge="1">
                    <mxGeometry width="50" height="50" relative="1" as="geometry">
                        <mxPoint x="240" y="133" as="sourcePoint"/>
                        <mxPoint x="360" y="179" as="targetPoint"/>
                    </mxGeometry>
                </mxCell>
                <mxCell id="KD4jFZE-13GcvxPWc2QR-17" value="" style="endArrow=classic;html=1;fontSize=10;exitX=1;exitY=0.5;exitDx=0;exitDy=0;entryX=0;entryY=0.5;entryDx=0;entryDy=0;" parent="1" source="KD4jFZE-13GcvxPWc2QR-15" target="3mBax8T-b5g0QYJkGsF_-5" edge="1">
                    <mxGeometry width="50" height="50" relative="1" as="geometry">
                        <mxPoint x="580" y="179" as="sourcePoint"/>
                        <mxPoint x="760" y="110" as="targetPoint"/>
                    </mxGeometry>
                </mxCell>
                <mxCell id="3mBax8T-b5g0QYJkGsF_-1" value="QuickTemplate" style="swimlane;fontStyle=0;childLayout=stackLayout;horizontal=1;startSize=26;fillColor=#dae8fc;horizontalStack=0;resizeParent=1;resizeParentMax=0;resizeLast=0;collapsible=1;marginBottom=0;swimlaneFillColor=#ffffff;align=center;fontSize=14;strokeColor=#6c8ebf;fontColor=#000000;" parent="1" vertex="1">
                    <mxGeometry x="40" y="40" width="200" height="160" as="geometry"/>
                </mxCell>
                <mxCell id="3mBax8T-b5g0QYJkGsF_-3" value="+ CommonBase&#10;+ QuickTemplate.AspMvc&#10;+ QuickTemplate.ConApp&#10;+ QuickTemplate.Logic&#10;+ QuickTemplate.WebApi&#10;+ QuickTemplate.WpfApp&#10;+ TemplateComparison.ConApp&#10;+ TemplateCopier.ConApp" style="text;strokeColor=none;fillColor=none;spacingLeft=4;spacingRight=4;overflow=hidden;rotatable=0;points=[[0,0.5],[1,0.5]];portConstraint=eastwest;fontSize=11;fontColor=#000000;" parent="3mBax8T-b5g0QYJkGsF_-1" vertex="1">
                    <mxGeometry y="26" width="200" height="134" as="geometry"/>
                </mxCell>
                <mxCell id="3mBax8T-b5g0QYJkGsF_-4" value="DomainProject" style="swimlane;fontStyle=0;childLayout=stackLayout;horizontal=1;startSize=26;fillColor=#b1ddf0;horizontalStack=0;resizeParent=1;resizeParentMax=0;resizeLast=0;collapsible=1;marginBottom=0;swimlaneFillColor=#ffffff;align=center;fontSize=14;strokeColor=#10739e;fontColor=#000000;" parent="1" vertex="1">
                    <mxGeometry x="720" y="40" width="200" height="160" as="geometry"/>
                </mxCell>
                <mxCell id="3mBax8T-b5g0QYJkGsF_-5" value="+ CommonBase&#10;+ DomainProject.AspMvc&#10;+ DomainProject.ConApp&#10;+ DomainProject.Logic&#10;+ DomainProject.WebApi&#10;+ DomainProject.WpfApp" style="text;spacingLeft=4;spacingRight=4;overflow=hidden;rotatable=0;points=[[0,0.5],[1,0.5]];portConstraint=eastwest;fontSize=11;fontColor=#000000;" parent="3mBax8T-b5g0QYJkGsF_-4" vertex="1">
                    <mxGeometry y="26" width="200" height="134" as="geometry"/>
                </mxCell>
            </root>
        </mxGraphModel>
    </diagram>
    <diagram id="NV0O73wnEwojy1pm9Em5" name="Create domain project overview">
        <mxGraphModel dx="1102" dy="1025" grid="1" gridSize="10" guides="1" tooltips="1" connect="1" arrows="1" fold="1" page="1" pageScale="1" pageWidth="850" pageHeight="1100" math="0" shadow="0">
            <root>
                <mxCell id="FKtRPnmVIKJ-BTRwxGmR-0"/>
                <mxCell id="FKtRPnmVIKJ-BTRwxGmR-1" parent="FKtRPnmVIKJ-BTRwxGmR-0"/>
                <mxCell id="q_pkdB8jnUIClKvRuqxw-0" value="&lt;b&gt;QuickTemplate&lt;/b&gt;" style="rounded=1;whiteSpace=wrap;html=1;strokeWidth=2;fillWeight=4;hachureGap=8;hachureAngle=45;fillColor=#A9C4EB;sketch=1;fontSize=12;" vertex="1" parent="FKtRPnmVIKJ-BTRwxGmR-1">
                    <mxGeometry x="80" y="40" width="160" height="120" as="geometry"/>
                </mxCell>
                <mxCell id="q_pkdB8jnUIClKvRuqxw-1" value="&lt;b&gt;DomainProject&lt;/b&gt;" style="rounded=1;whiteSpace=wrap;html=1;strokeWidth=2;fillWeight=4;hachureGap=8;hachureAngle=45;fillColor=#d5e8d4;sketch=1;fontSize=12;strokeColor=#82b366;" vertex="1" parent="FKtRPnmVIKJ-BTRwxGmR-1">
                    <mxGeometry x="610" y="40" width="160" height="120" as="geometry"/>
                </mxCell>
                <mxCell id="gYlGJE8trwcfRiRCZoEW-0" value="TemplateCopier" style="label;whiteSpace=wrap;html=1;image=img/clipart/Gear_128x128.png;fontSize=12;fillColor=#f9f7ed;strokeColor=#36393d;rounded=1;glass=0;shadow=0;" vertex="1" parent="FKtRPnmVIKJ-BTRwxGmR-1">
                    <mxGeometry x="345" y="60" width="160" height="80" as="geometry"/>
                </mxCell>
                <mxCell id="gYlGJE8trwcfRiRCZoEW-2" value="" style="html=1;shadow=0;dashed=0;align=center;verticalAlign=middle;shape=mxgraph.arrows2.arrow;dy=0.6;dx=40;notch=0;rounded=1;glass=0;fontSize=12;fillColor=#f5f5f5;fontColor=#333333;strokeColor=#666666;" vertex="1" parent="FKtRPnmVIKJ-BTRwxGmR-1">
                    <mxGeometry x="250" y="82.5" width="90" height="35" as="geometry"/>
                </mxCell>
                <mxCell id="gYlGJE8trwcfRiRCZoEW-3" value="" style="html=1;shadow=0;dashed=0;align=center;verticalAlign=middle;shape=mxgraph.arrows2.arrow;dy=0.6;dx=40;notch=0;rounded=1;glass=0;fontSize=12;fillColor=#eeeeee;strokeColor=#36393d;" vertex="1" parent="FKtRPnmVIKJ-BTRwxGmR-1">
                    <mxGeometry x="510" y="82.5" width="90" height="35" as="geometry"/>
                </mxCell>
            </root>
        </mxGraphModel>
    </diagram>
</mxfile>